<svg width="281" height="284" viewBox="0 0 281 284" fill="none" xmlns="http://www.w3.org/2000/svg">
<path d="M112.5 249.5L63 276V203L218.5 205.5V276L171.5 249.5H112.5Z" fill="#F7A212"/>
<path d="M102 197.5L112.5 249.5H171.5L190.5 197.5H102Z" fill="#FCAA14"/>
<path d="M215.918 121.004C246.132 121.004 270.626 93.9164 270.626 60.502C270.626 27.0877 246.132 0 215.918 0C185.704 0 161.21 27.0877 161.21 60.502C161.21 93.9164 185.704 121.004 215.918 121.004Z" fill="url(#paint0_linear_125_248)"/>
<path d="M65.0821 121.004C95.2964 121.004 119.79 93.9164 119.79 60.502C119.79 27.0877 95.2964 0 65.0821 0C34.8677 0 10.3741 27.0877 10.3741 60.502C10.3741 93.9164 34.8677 121.004 65.0821 121.004Z" fill="url(#paint1_linear_125_248)"/>
<path d="M166.603 11.631H114.099C86.6318 11.631 64.3649 33.9254 64.3649 61.4269V158.369C64.3649 185.871 86.6318 208.165 114.099 208.165H166.603C194.07 208.165 216.337 185.871 216.337 158.369V61.4269C216.337 33.9254 194.07 11.631 166.603 11.631Z" fill="#FFC937"/>
<path d="M118.598 79.3357C118.598 71.0969 111.927 64.418 103.699 64.418C95.4701 64.418 88.7995 71.0969 88.7995 79.3357V92.4455C88.7995 100.684 95.4701 107.363 103.699 107.363C111.927 107.363 118.598 100.684 118.598 92.4455V79.3357Z" fill="#F3F3F3"/>
<path d="M191.903 79.3357C191.903 71.0969 185.232 64.418 177.003 64.418C168.775 64.418 162.104 71.0969 162.104 79.3357V92.4455C162.104 100.684 168.775 107.363 177.003 107.363C185.232 107.363 191.903 100.684 191.903 92.4455V79.3357Z" fill="#F3F3F3"/>
<path d="M114.128 88.1655C114.128 83.7989 110.593 80.2592 106.232 80.2592C101.871 80.2592 98.3351 83.7989 98.3351 88.1655V97.7024C98.3351 102.069 101.871 105.609 106.232 105.609C110.593 105.609 114.128 102.069 114.128 97.7024V88.1655Z" fill="#481905"/>
<path d="M182.367 88.1655C182.367 83.7989 178.832 80.2592 174.47 80.2592C170.109 80.2592 166.574 83.7989 166.574 88.1655V97.7024C166.574 102.069 170.109 105.609 174.47 105.609C178.832 105.609 182.367 102.069 182.367 97.7024V88.1655Z" fill="#481905"/>
<path d="M193.691 127.642C199.944 127.642 205.014 123.637 205.014 118.696C205.014 113.754 199.944 109.749 193.691 109.749C187.437 109.749 182.367 113.754 182.367 118.696C182.367 123.637 187.437 127.642 193.691 127.642Z" fill="#FF9D04"/>
<path d="M87.0115 127.642C93.2653 127.642 98.335 123.637 98.335 118.696C98.335 113.754 93.2653 109.749 87.0115 109.749C80.7578 109.749 75.6881 113.754 75.6881 118.696C75.6881 123.637 80.7578 127.642 87.0115 127.642Z" fill="#FF9D04"/>
<path d="M117.257 113.029C117.257 128.09 127.776 159.024 161.509 158.655C170.3 158.245 186.896 152.74 181.175 138.975C178.758 133.16 163.028 128.379 163.743 107.363" stroke="#F89202" stroke-width="8" stroke-linecap="round"/>
<path d="M140.351 116.091C142.188 113.208 147.95 108.456 156.293 112.512" stroke="#FFA913" stroke-width="6" stroke-linecap="round"/>
<path d="M92.0775 49.5063C95.076 44.299 101.159 41.7132 106.983 43.1705L107.275 43.2434" stroke="#F79305" stroke-width="16" stroke-linecap="round"/>
<path d="M188.475 49.3572C185.477 44.1499 179.394 41.5642 173.57 43.0214L173.279 43.0943" stroke="#F79305" stroke-width="16" stroke-linecap="round"/>
<ellipse cx="54" cy="244.799" rx="28.1161" ry="32.7043" transform="rotate(-13.5592 54 244.799)" fill="#FCAD17"/>
<ellipse cx="28.1161" cy="32.7043" rx="28.1161" ry="32.7043" transform="matrix(-0.972128 -0.23445 -0.23445 0.972128 262 219.184)" fill="#FCAD17"/>
<defs>
<linearGradient id="paint0_linear_125_248" x1="270.593" y1="44.2847" x2="165.191" y2="80.2428" gradientUnits="userSpaceOnUse">
<stop offset="0.495192" stop-color="#FE9A09"/>
<stop offset="1" stop-color="#985C05"/>
</linearGradient>
<linearGradient id="paint1_linear_125_248" x1="10.4074" y1="49.9288" x2="123.601" y2="75.4859" gradientUnits="userSpaceOnUse">
<stop offset="0.504808" stop-color="#FE9A09"/>
<stop offset="1" stop-color="#985C05"/>
</linearGradient>
</defs>
</svg>
