<svg width="203" height="91" viewBox="0 0 203 91" fill="none" xmlns="http://www.w3.org/2000/svg">
<path d="M0.79847 55.9778C-4.18089 36.0746 15.3215 9.61235 26.261 0V25.4445C31.693 35.3961 47.7628 41.2766 55.1187 42.9729C63.1473 46.0483 74.544 50.7004 77.7522 60.5013C79.0661 64.5152 79.9483 71.6019 77.1863 76.3334C65.3038 96.6889 38.1436 90.4692 30.7878 88.7729C23.4319 87.0766 7.02267 80.8568 0.79847 55.9778Z" fill="#FFBB1E"/>
<path d="M202.202 55.9778C207.181 36.0746 187.678 9.61235 176.739 0V25.4445C171.307 35.3961 155.237 41.2766 147.881 42.9729C139.853 46.0483 128.456 50.7004 125.248 60.5013C123.934 64.5152 123.052 71.6019 125.814 76.3334C137.696 96.6889 164.856 90.4692 172.212 88.7729C179.568 87.0766 195.977 80.8568 202.202 55.9778Z" fill="#FFBB1E"/>
</svg>
