<svg width="273" height="170" viewBox="0 0 273 170" fill="none" xmlns="http://www.w3.org/2000/svg">
<g clip-path="url(#clip0_136_76)">
<path d="M98.2912 32.0646L109.561 21.8656C116.605 15.49 117.145 4.61262 110.767 -2.42968L69.7587 -47.7071C63.3804 -54.7494 52.4989 -55.2899 45.4542 -48.9142L34.1849 -38.7152C27.1402 -32.3396 26.6 -21.4622 32.9783 -14.4199L73.9867 30.8575C80.3651 37.8998 91.2466 38.4403 98.2912 32.0646Z" fill="url(#paint0_linear_136_76)"/>
<path d="M213.017 -2.42968C206.638 4.61253 207.179 15.4901 214.223 21.8659L225.493 32.0645C232.537 38.4403 243.419 37.9001 249.797 30.8579L290.805 -14.4198C297.184 -21.462 296.643 -32.3395 289.599 -38.7148L278.329 -48.914C271.285 -55.2898 260.403 -54.749 254.025 -47.7068L213.017 -2.42968Z" fill="url(#paint1_linear_136_76)"/>
<path d="M75.0413 30.6469C40.2034 30.6469 11.9616 61.8422 11.9617 100.323C11.9617 138.805 40.2034 170 75.0413 170C109.879 170 138.121 138.805 138.121 100.323C138.121 61.8422 109.879 30.6469 75.0413 30.6469Z" fill="url(#paint2_linear_136_76)"/>
<path d="M248.959 30.6469C214.121 30.6469 185.879 61.8422 185.879 100.323C185.879 138.805 214.121 170 248.959 170C283.797 170 312.038 138.805 312.038 100.323C312.038 61.8422 283.797 30.6469 248.959 30.6469Z" fill="url(#paint3_linear_136_76)"/>
<path d="M131.903 156.605L192.441 156.605C224.111 156.605 249.786 130.93 249.786 99.2584L249.786 -12.384C249.786 -44.0558 224.111 -69.731 192.441 -69.731L131.903 -69.7309C100.232 -69.7309 74.5578 -44.0558 74.5578 -12.384L74.5579 99.2584C74.5579 130.93 100.232 156.605 131.903 156.605Z" fill="#FFB825"/>
<path d="M187.254 78.634C187.254 88.1221 194.945 95.8137 204.433 95.8137C213.921 95.8137 221.612 88.1221 221.612 78.634L221.612 63.5361C221.612 54.048 213.921 46.3563 204.433 46.3563C194.945 46.3563 187.254 54.048 187.254 63.5361L187.254 78.634Z" fill="#F3F3F3"/>
<path d="M102.731 78.634C102.731 88.1221 110.423 95.8137 119.911 95.8137C129.398 95.8137 137.09 88.1221 137.09 78.634L137.09 63.5361C137.09 54.048 129.398 46.3563 119.911 46.3563C110.423 46.3563 102.731 54.048 102.731 63.5361L102.731 78.634Z" fill="#F3F3F3"/>
<path d="M192.407 84.375C192.407 89.4037 196.484 93.4802 201.512 93.4802C206.541 93.4802 210.617 89.4037 210.617 84.375L210.617 73.3919C210.617 68.3632 206.541 64.2866 201.512 64.2866C196.484 64.2866 192.407 68.3632 192.407 73.3919L192.407 84.375Z" fill="#481905"/>
<path d="M113.726 84.375C113.726 89.4037 117.803 93.4802 122.831 93.4802C127.86 93.4802 131.936 89.4037 131.936 84.375L131.936 73.3919C131.936 68.3632 127.86 64.2866 122.831 64.2866C117.803 64.2866 113.726 68.3632 113.726 73.3919L113.726 84.375Z" fill="#481905"/>
<path d="M100.67 23.002C93.4592 23.002 87.6137 27.6151 87.6137 33.3056C87.6137 38.9962 93.4592 43.6093 100.67 43.6093C107.881 43.6093 113.726 38.9962 113.726 33.3056C113.726 27.6151 107.881 23.002 100.67 23.002Z" fill="#FF9D04"/>
<path d="M223.674 23.0019C216.463 23.0019 210.617 27.615 210.617 33.3055C210.617 38.996 216.463 43.6091 223.674 43.6091C230.884 43.6091 236.73 38.996 236.73 33.3055C236.73 27.615 230.884 23.0019 223.674 23.0019Z" fill="#FF9D04"/>
<path d="M188.8 39.8311C188.8 22.4865 176.671 -13.1386 137.776 -12.7136C127.64 -12.2417 108.504 -5.90139 115.101 9.95045C117.888 16.648 136.025 22.1539 135.2 46.3566" stroke="#F89202" stroke-width="8" stroke-linecap="round"/>
<path d="M162.172 36.3054C160.053 39.6258 153.41 45.0978 143.79 40.4269" stroke="#FFA913" stroke-width="6" stroke-linecap="round"/>
<path d="M217.832 112.987C214.375 118.984 207.361 121.961 200.646 120.283L200.309 120.199" stroke="#F79305" stroke-width="16" stroke-linecap="round"/>
<path d="M106.683 113.158C110.14 119.155 117.154 122.133 123.869 120.455L124.206 120.371" stroke="#F79305" stroke-width="16" stroke-linecap="round"/>
</g>
<defs>
<linearGradient id="paint0_linear_136_76" x1="103.926" y1="26.9651" x2="39.8463" y2="-43.839" gradientUnits="userSpaceOnUse">
<stop offset="0.00480769" stop-color="#985C05"/>
<stop offset="0.5" stop-color="#FE9A09"/>
</linearGradient>
<linearGradient id="paint1_linear_136_76" x1="251.911" y1="36.5143" x2="251.911" y2="-53.3635" gradientUnits="userSpaceOnUse">
<stop stop-color="#985C05"/>
<stop offset="0.504808" stop-color="#FE9A09"/>
</linearGradient>
<linearGradient id="paint2_linear_136_76" x1="12" y1="119" x2="133.5" y2="77.5" gradientUnits="userSpaceOnUse">
<stop offset="0.495192" stop-color="#FE9A09"/>
<stop offset="1" stop-color="#985C05"/>
</linearGradient>
<linearGradient id="paint3_linear_136_76" x1="312" y1="112.5" x2="181.5" y2="83" gradientUnits="userSpaceOnUse">
<stop offset="0.504808" stop-color="#FE9A09"/>
<stop offset="1" stop-color="#985C05"/>
</linearGradient>
<clipPath id="clip0_136_76">
<rect width="324" height="281" fill="white" transform="translate(324 170) rotate(180)"/>
</clipPath>
</defs>
</svg>
